<svg id="Layer_1" data-name="Layer 1" xmlns="http://www.w3.org/2000/svg" xmlns:xlink="http://www.w3.org/1999/xlink" viewBox="0 0 100 100"><defs><style>.cls-1{fill:url(#linear-gradient);}.cls-2{fill:#f2f2f2;}</style><linearGradient id="linear-gradient" y1="50" x2="100" y2="50" gradientUnits="userSpaceOnUse"><stop offset="0" stop-color="#ccb4b4"/><stop offset="0.17" stop-color="#c1a0a0"/><stop offset="0.34" stop-color="#a57979"/><stop offset="0.51" stop-color="#774f4f"/><stop offset="0.68" stop-color="#493232"/><stop offset="0.85" stop-color="#3f2a2a"/><stop offset="1" stop-color="#362222"/></linearGradient></defs><rect class="cls-1" width="100" height="100"/><path class="cls-2" d="M99.5,82.78c-7.34-1.23-14.65-2.66-22-4.11l-5.48-1.1-5.48-1.13c-3.65-.74-7.3-1.52-10.95-2.29L50.15,73l-5.49-1.12-11-2.16-.11,0Q37.66,64.21,43,56q11.81-.28,17.43-.24A93.72,93.72,0,0,1,58.9,65.9a59.92,59.92,0,0,1-2.5,7.88,47.57,47.57,0,0,1,6.2-.62q1.2,0,5.73.48a43.27,43.27,0,0,0,4.52.29q1.29,0,3-.15L76.36,71a21.39,21.39,0,0,1-4.09.44,26.08,26.08,0,0,1-6.4-.92L68,50.65l3.76-27.8q.63-4.41,2.07-10.34A11,11,0,0,1,69.54,15a48.2,48.2,0,0,1-7.13.91A64.91,64.91,0,0,0,53.27,17a26,26,0,0,0-8.41,3.34,15.3,15.3,0,0,0-5.17,5.43,13.69,13.69,0,0,0-1.81,6.71,5.77,5.77,0,0,0,1,3.68,3.19,3.19,0,0,0,2.62,1.23,2.66,2.66,0,0,0,2-.82,2.55,2.55,0,0,0,.82-1.87,8.33,8.33,0,0,0-.67-2.6A7.33,7.33,0,0,1,43,29.64a8.3,8.3,0,0,1,2-5.2,12.24,12.24,0,0,1,6-3.85q2.93-1,14.79-2-8.7,9.83-22.73,31.36-7.94,12.21-13.4,19l-1.55-.3-2.76-.53c-.95-.17-1.9-.35-2.87-.48a40.62,40.62,0,0,0-5.86-.41c-1,0-2,.07-3,.16a27.3,27.3,0,0,0-3,.5,21.11,21.11,0,0,0-2.91.86c-.48.19-.94.37-1.42.59A11.62,11.62,0,0,0,5,70.09a11.3,11.3,0,0,0-2.56,2.07A7.6,7.6,0,0,0,.72,75.27a6.78,6.78,0,0,0,.06,3.66,7.69,7.69,0,0,0,.69,1.64,7.84,7.84,0,0,0,1,1.42A8.42,8.42,0,0,0,3.71,83.2a9,9,0,0,0,1.44.92,11.26,11.26,0,0,0,3.12,1,15.29,15.29,0,0,0,3.14.25c.52,0,1,0,1.54-.11l.76-.09c.26,0,.51-.09.76-.13A18.25,18.25,0,0,0,20.25,83a26.7,26.7,0,0,0,4.8-3.59h0a70.22,70.22,0,0,0,5.69-6l2,.48,10.89,2.62,5.47,1.27,5.47,1.22c7.31,1.59,14.63,3.16,22,4.58s14.73,2.78,22.14,4M58,33.93q1.45-2.11,7.54-10.21-2.31,9-4.62,28.52c-1.38.09-2.67.14-3.89.14-4.93,0-8.73-.05-11.38-.14Zm-39.44,46a14.76,14.76,0,0,1-4.68,1.76l-.62.11-.63.08c-.42.06-.84.08-1.26.1a12.16,12.16,0,0,1-2.43-.16,8.45,8.45,0,0,1-2.18-.71,6,6,0,0,1-.92-.58A4.83,4.83,0,0,1,5,79.79a4.32,4.32,0,0,1-.61-.86A3.85,3.85,0,0,1,4,78a3.37,3.37,0,0,1,0-1.86,4.26,4.26,0,0,1,1-1.73A7.83,7.83,0,0,1,6.74,73c.35-.2.71-.39,1.09-.56s.78-.32,1.17-.47a18.84,18.84,0,0,1,2.47-.7,22.39,22.39,0,0,1,5.19-.46,33,33,0,0,1,5.3.54c.88.15,1.76.34,2.64.55l2.22.53c-.88,1-2.43,2.67-2.43,2.67A28.24,28.24,0,0,1,18.51,79.92Z"/></svg>